{
    "asset" : {
        "copyright" : "cpoy",
        "generator" : "Khronos glTF Blender I/O v3.3.32",
        "version" : "2.0"
    },
    "scene" : 0,
    "scenes" : [
        {
            "name" : "Scene",
            "nodes" : [
                17
            ]
        }
    ],
    "nodes" : [
        {
            "mesh" : 0,
            "name" : "Cube_0"
        },
        {
            "children" : [
                0
            ],
            "name" : "Cube.001",
            "scale" : [
                0.7851300239562988,
                1.6119099855422974,
                2.608180046081543
            ],
            "translation" : [
                0,
                0,
                2.7051000595092773
            ]
        },
        {
            "mesh" : 1,
            "name" : "Cube.002_0"
        },
        {
            "children" : [
                2
            ],
            "name" : "Cube.002",
            "scale" : [
                0.07191000133752823,
                0.6786699891090393,
                2.49045991897583
            ],
            "translation" : [
                0.8013299703598022,
                1.436710000038147,
                2.3319098949432373
            ]
        },
        {
            "mesh" : 2,
            "name" : "Cube.001_0"
        },
        {
            "children" : [
                4
            ],
            "name" : "Cube.003",
            "scale" : [
                0.07191000133752823,
                0.6786699891090393,
                2.49045991897583
            ],
            "translation" : [
                0.8078399896621704,
                -1.4596999883651733,
                2.3319098949432373
            ]
        },
        {
            "mesh" : 3,
            "name" : "Cube.005_0"
        },
        {
            "children" : [
                6
            ],
            "name" : "Cube.005",
            "rotation" : [
                0,
                0,
                0.7019966840744019,
                0.7121801972389221
            ],
            "scale" : [
                0.2838495373725891,
                0.6822108030319214,
                0.2641099989414215
            ],
            "translation" : [
                0.03946999832987785,
                -0.038350000977516174,
                -0.12950000166893005
            ]
        },
        {
            "mesh" : 4,
            "name" : "Cube.007_0"
        },
        {
            "children" : [
                8
            ],
            "name" : "Cube.007",
            "rotation" : [
                1,
                0,
                0,
                0
            ],
            "scale" : [
                0.2838500142097473,
                1.3842500448226929,
                0.2641099989414215
            ],
            "translation" : [
                0.6562899947166443,
                -0.0552700012922287,
                5.481110095977783
            ]
        },
        {
            "mesh" : 5,
            "name" : "Cube.008_0"
        },
        {
            "children" : [
                10
            ],
            "name" : "Cube.008",
            "scale" : [
                0.5777999758720398,
                1.5157599449157715,
                0.05347999930381775
            ],
            "translation" : [
                -0.050030000507831573,
                -0.005309999920427799,
                0.6150100231170654
            ]
        },
        {
            "mesh" : 6,
            "name" : "Cylinder_0",
            "translation" : [
                0,
                -1.5266554328263737e-05,
                0
            ]
        },
        {
            "children" : [
                12
            ],
            "name" : "Cylinder",
            "rotation" : [
                -0.7071068286895752,
                0,
                0,
                0.7071067094802856
            ],
            "scale" : [
                0.033240001648664474,
                0.03324000537395477,
                1.507190227508545
            ],
            "translation" : [
                0.32027000188827515,
                0.0009599999757483602,
                4.350749969482422
            ]
        },
        {
            "name" : "Lamp.001"
        },
        {
            "children" : [
                14
            ],
            "name" : "Lamp",
            "rotation" : [
                0.16907446086406708,
                0.27217066287994385,
                0.7558797597885132,
                0.5709490180015564
            ],
            "scale" : [
                0.9999975562095642,
                0.9999958276748657,
                0.9999960660934448
            ],
            "translation" : [
                4.076250076293945,
                1.0054500102996826,
                5.903860092163086
            ]
        },
        {
            "children" : [
                1,
                3,
                5,
                7,
                9,
                11,
                13,
                15
            ],
            "name" : "Root"
        },
        {
            "children" : [
                16
            ],
            "name" : "Sketchfab_model",
            "rotation" : [
                -0.7071068286895752,
                0,
                0,
                0.7071067094802856
            ]
        }
    ],
    "animations" : [
        {
            "channels" : [
                {
                    "sampler" : 0,
                    "target" : {
                        "node" : 3,
                        "path" : "rotation"
                    }
                },
                {
                    "sampler" : 1,
                    "target" : {
                        "node" : 5,
                        "path" : "rotation"
                    }
                }
            ],
            "name" : "Take 01",
            "samplers" : [
                {
                    "input" : 21,
                    "interpolation" : "LINEAR",
                    "output" : 22
                },
                {
                    "input" : 21,
                    "interpolation" : "LINEAR",
                    "output" : 23
                }
            ]
        }
    ],
    "materials" : [
        {
            "doubleSided" : true,
            "name" : "Material.001",
            "pbrMetallicRoughness" : {
                "baseColorFactor" : [
                    0.06847815215587616,
                    0.04091515764594078,
                    0.03560132905840874,
                    1
                ],
                "metallicFactor" : 0,
                "roughnessFactor" : 0.6000000238418579
            }
        },
        {
            "doubleSided" : true,
            "name" : "Root",
            "pbrMetallicRoughness" : {
                "baseColorFactor" : [
                    0.06847815215587616,
                    0.04091515764594078,
                    0.03560132905840874,
                    1
                ],
                "metallicFactor" : 0,
                "roughnessFactor" : 0.6000000238418579
            }
        }
    ],
    "meshes" : [
        {
            "name" : "Cube_0",
            "primitives" : [
                {
                    "attributes" : {
                        "POSITION" : 0,
                        "NORMAL" : 1
                    },
                    "indices" : 2,
                    "material" : 0
                }
            ]
        },
        {
            "name" : "Cube.002_0",
            "primitives" : [
                {
                    "attributes" : {
                        "POSITION" : 3,
                        "NORMAL" : 4
                    },
                    "indices" : 5,
                    "material" : 1
                }
            ]
        },
        {
            "name" : "Cube.001_0",
            "primitives" : [
                {
                    "attributes" : {
                        "POSITION" : 6,
                        "NORMAL" : 7
                    },
                    "indices" : 8,
                    "material" : 1
                }
            ]
        },
        {
            "name" : "Cube.005_0",
            "primitives" : [
                {
                    "attributes" : {
                        "POSITION" : 9,
                        "NORMAL" : 10
                    },
                    "indices" : 11,
                    "material" : 1
                }
            ]
        },
        {
            "name" : "Cube.007_0",
            "primitives" : [
                {
                    "attributes" : {
                        "POSITION" : 12,
                        "NORMAL" : 13
                    },
                    "indices" : 14,
                    "material" : 1
                }
            ]
        },
        {
            "name" : "Cube.008_0",
            "primitives" : [
                {
                    "attributes" : {
                        "POSITION" : 15,
                        "NORMAL" : 16
                    },
                    "indices" : 17,
                    "material" : 1
                }
            ]
        },
        {
            "name" : "Cylinder_0",
            "primitives" : [
                {
                    "attributes" : {
                        "POSITION" : 18,
                        "NORMAL" : 19
                    },
                    "indices" : 20,
                    "material" : 1
                }
            ]
        }
    ],
    "accessors" : [
        {
            "bufferView" : 0,
            "componentType" : 5126,
            "count" : 58,
            "max" : [
                1,
                0.9312599897384644,
                0.9859600067138672
            ],
            "min" : [
                -0.9551600217819214,
                -0.9312700033187866,
                -0.9859600067138672
            ],
            "type" : "VEC3"
        },
        {
            "bufferView" : 1,
            "componentType" : 5126,
            "count" : 58,
            "type" : "VEC3"
        },
        {
            "bufferView" : 2,
            "componentType" : 5123,
            "count" : 84,
            "type" : "SCALAR"
        },
        {
            "bufferView" : 3,
            "componentType" : 5126,
            "count" : 401,
            "max" : [
                1.6431100368499756,
                0.017829999327659607,
                1.1478699445724487
            ],
            "min" : [
                -0.43046000599861145,
                -2.1205201148986816,
                -0.8521299958229065
            ],
            "type" : "VEC3"
        },
        {
            "bufferView" : 4,
            "componentType" : 5126,
            "count" : 401,
            "type" : "VEC3"
        },
        {
            "bufferView" : 5,
            "componentType" : 5123,
            "count" : 432,
            "type" : "SCALAR"
        },
        {
            "bufferView" : 6,
            "componentType" : 5126,
            "count" : 398,
            "max" : [
                1.5526000261306763,
                2.12896990776062,
                1.1478699445724487
            ],
            "min" : [
                -0.5209800004959106,
                -0.009379999712109566,
                -0.8521299958229065
            ],
            "type" : "VEC3"
        },
        {
            "bufferView" : 7,
            "componentType" : 5126,
            "count" : 398,
            "type" : "VEC3"
        },
        {
            "bufferView" : 8,
            "componentType" : 5123,
            "count" : 432,
            "type" : "SCALAR"
        },
        {
            "bufferView" : 9,
            "componentType" : 5126,
            "count" : 544,
            "max" : [
                5.066720008850098,
                1.0371099710464478,
                1.0138299465179443
            ],
            "min" : [
                -5.066720008850098,
                -1.0371099710464478,
                -1.0138299465179443
            ],
            "type" : "VEC3"
        },
        {
            "bufferView" : 10,
            "componentType" : 5126,
            "count" : 544,
            "type" : "VEC3"
        },
        {
            "bufferView" : 11,
            "componentType" : 5123,
            "count" : 672,
            "type" : "SCALAR"
        },
        {
            "bufferView" : 12,
            "componentType" : 5126,
            "count" : 124,
            "max" : [
                0.08585000038146973,
                0.953719973564148,
                1
            ],
            "min" : [
                -0.08585000038146973,
                -0.953719973564148,
                -1
            ],
            "type" : "VEC3"
        },
        {
            "bufferView" : 13,
            "componentType" : 5126,
            "count" : 124,
            "type" : "VEC3"
        },
        {
            "bufferView" : 14,
            "componentType" : 5123,
            "count" : 162,
            "type" : "SCALAR"
        },
        {
            "bufferView" : 15,
            "componentType" : 5126,
            "count" : 12,
            "max" : [
                1.111199975013733,
                0.9840499758720398,
                1
            ],
            "min" : [
                -1,
                -0.9840499758720398,
                -1
            ],
            "type" : "VEC3"
        },
        {
            "bufferView" : 16,
            "componentType" : 5126,
            "count" : 12,
            "type" : "VEC3"
        },
        {
            "bufferView" : 17,
            "componentType" : 5123,
            "count" : 18,
            "type" : "SCALAR"
        },
        {
            "bufferView" : 18,
            "componentType" : 5126,
            "count" : 56,
            "max" : [
                0.9510599970817566,
                1,
                1
            ],
            "min" : [
                -0.9510599970817566,
                -1,
                -1
            ],
            "type" : "VEC3"
        },
        {
            "bufferView" : 19,
            "componentType" : 5126,
            "count" : 56,
            "type" : "VEC3"
        },
        {
            "bufferView" : 20,
            "componentType" : 5123,
            "count" : 60,
            "type" : "SCALAR"
        },
        {
            "bufferView" : 21,
            "componentType" : 5126,
            "count" : 59,
            "max" : [
                2.458336666226387
            ],
            "min" : [
                0.04166999955972036
            ],
            "type" : "SCALAR"
        },
        {
            "bufferView" : 22,
            "componentType" : 5126,
            "count" : 59,
            "type" : "VEC4"
        },
        {
            "bufferView" : 23,
            "componentType" : 5126,
            "count" : 59,
            "type" : "VEC4"
        }
    ],
    "bufferViews" : [
        {
            "buffer" : 0,
            "byteLength" : 696,
            "byteOffset" : 0,
            "target" : 34962
        },
        {
            "buffer" : 0,
            "byteLength" : 696,
            "byteOffset" : 696,
            "target" : 34962
        },
        {
            "buffer" : 0,
            "byteLength" : 168,
            "byteOffset" : 1392,
            "target" : 34963
        },
        {
            "buffer" : 0,
            "byteLength" : 4812,
            "byteOffset" : 1560,
            "target" : 34962
        },
        {
            "buffer" : 0,
            "byteLength" : 4812,
            "byteOffset" : 6372,
            "target" : 34962
        },
        {
            "buffer" : 0,
            "byteLength" : 864,
            "byteOffset" : 11184,
            "target" : 34963
        },
        {
            "buffer" : 0,
            "byteLength" : 4776,
            "byteOffset" : 12048,
            "target" : 34962
        },
        {
            "buffer" : 0,
            "byteLength" : 4776,
            "byteOffset" : 16824,
            "target" : 34962
        },
        {
            "buffer" : 0,
            "byteLength" : 864,
            "byteOffset" : 21600,
            "target" : 34963
        },
        {
            "buffer" : 0,
            "byteLength" : 6528,
            "byteOffset" : 22464,
            "target" : 34962
        },
        {
            "buffer" : 0,
            "byteLength" : 6528,
            "byteOffset" : 28992,
            "target" : 34962
        },
        {
            "buffer" : 0,
            "byteLength" : 1344,
            "byteOffset" : 35520,
            "target" : 34963
        },
        {
            "buffer" : 0,
            "byteLength" : 1488,
            "byteOffset" : 36864,
            "target" : 34962
        },
        {
            "buffer" : 0,
            "byteLength" : 1488,
            "byteOffset" : 38352,
            "target" : 34962
        },
        {
            "buffer" : 0,
            "byteLength" : 324,
            "byteOffset" : 39840,
            "target" : 34963
        },
        {
            "buffer" : 0,
            "byteLength" : 144,
            "byteOffset" : 40164,
            "target" : 34962
        },
        {
            "buffer" : 0,
            "byteLength" : 144,
            "byteOffset" : 40308,
            "target" : 34962
        },
        {
            "buffer" : 0,
            "byteLength" : 36,
            "byteOffset" : 40452,
            "target" : 34963
        },
        {
            "buffer" : 0,
            "byteLength" : 672,
            "byteOffset" : 40488,
            "target" : 34962
        },
        {
            "buffer" : 0,
            "byteLength" : 672,
            "byteOffset" : 41160,
            "target" : 34962
        },
        {
            "buffer" : 0,
            "byteLength" : 120,
            "byteOffset" : 41832,
            "target" : 34963
        },
        {
            "buffer" : 0,
            "byteLength" : 236,
            "byteOffset" : 41952
        },
        {
            "buffer" : 0,
            "byteLength" : 944,
            "byteOffset" : 42188
        },
        {
            "buffer" : 0,
            "byteLength" : 944,
            "byteOffset" : 43132
        }
    ],
    "buffers" : [
        {
            "byteLength" : 44076,
            "uri" : "scene.bin"
        }
    ]
}
